<svg xmlns="http://www.w3.org/2000/svg" xmlns:xlink="http://www.w3.org/1999/xlink" width="375" viewBox="0 0 375 375" height="375" version="1.0"><defs><g id="a"><path d="M 48.078125 1.6875 C 40.210938 1.6875 33.210938 -0.0234375 27.078125 -3.453125 C 20.953125 -6.890625 16.171875 -11.671875 12.734375 -17.796875 C 9.304688 -23.929688 7.59375 -30.9375 7.59375 -38.8125 C 7.59375 -41.394531 8.4375 -43.5 10.125 -45.125 C 11.8125 -46.757812 13.890625 -47.578125 16.359375 -47.578125 C 18.953125 -47.578125 21.0625 -46.757812 22.6875 -45.125 C 24.320312 -43.5 25.140625 -41.394531 25.140625 -38.8125 C 25.140625 -31.601562 27.273438 -25.691406 31.546875 -21.078125 C 35.828125 -16.472656 41.335938 -14.171875 48.078125 -14.171875 C 54.828125 -14.171875 60.367188 -16.472656 64.703125 -21.078125 C 69.035156 -25.691406 71.203125 -31.601562 71.203125 -38.8125 L 71.203125 -123 C 71.203125 -125.582031 72.015625 -127.6875 73.640625 -129.3125 C 75.273438 -130.945312 77.328125 -131.765625 79.796875 -131.765625 C 82.390625 -131.765625 84.53125 -130.945312 86.21875 -129.3125 C 87.90625 -127.6875 88.75 -125.582031 88.75 -123 L 88.75 -38.8125 C 88.75 -30.9375 87.003906 -23.929688 83.515625 -17.796875 C 80.023438 -11.671875 75.210938 -6.890625 69.078125 -3.453125 C 62.953125 -0.0234375 55.953125 1.6875 48.078125 1.6875 Z M 48.078125 1.6875"/></g></defs><path fill="#8E99FB" d="M 0 187.5 C 0 291.054688 83.945312 375 187.5 375 C 291.054688 375 375 291.054688 375 187.5 L 375 0 L 187.5 0 C 83.945312 -0.03125 0 83.945312 0 187.5 Z M 0 187.5"/><g fill="#FFF"><use x="134.699" y="251.18" xmlns:xlink="http://www.w3.org/1999/xlink" xlink:href="#a" xlink:type="simple" xlink:actuate="onLoad" xlink:show="embed"/></g></svg>